<svg width="600" height="400" viewBox="0 0 600 400" fill="none" xmlns="http://www.w3.org/2000/svg">
  <rect width="600" height="400" fill="#09090B"/>
  <!-- Sidebar -->
  <rect x="20" y="20" width="200" height="360" rx="12" fill="#18181B" stroke="#27272A" stroke-width="2"/>
  <text x="120" y="50" text-anchor="middle" fill="#FAFAFA" font-family="system-ui" font-size="16" font-weight="bold">Components</text>
  <!-- Component items -->
  <rect x="40" y="80" width="160" height="40" rx="6" fill="#27272A"/>
  <text x="50" y="105" fill="#A1A1AA" font-family="system-ui" font-size="12">Button</text>
  <circle cx="180" cy="100" r="4" fill="#22C55E"/>
  
  <rect x="40" y="130" width="160" height="40" rx="6" fill="#27272A"/>
  <text x="50" y="155" fill="#A1A1AA" font-family="system-ui" font-size="12">Card</text>
  <circle cx="180" cy="150" r="4" fill="#22C55E"/>
  
  <rect x="40" y="180" width="160" height="40" rx="6" fill="#27272A"/>
  <text x="50" y="205" fill="#A1A1AA" font-family="system-ui" font-size="12">Badge</text>
  <circle cx="180" cy="200" r="4" fill="#F59E0B"/>
  
  <!-- Search bar -->
  <rect x="40" y="340" width="160" height="30" rx="6" fill="#27272A" stroke="#3F3F46" stroke-width="1"/>
  <text x="50" y="358" fill="#52525B" font-family="system-ui" font-size="11">Search...</text>
  
  <!-- Main content area -->
  <rect x="240" y="20" width="340" height="360" rx="12" fill="#18181B" stroke="#27272A" stroke-width="2"/>
  <text x="410" y="50" text-anchor="middle" fill="#FAFAFA" font-family="system-ui" font-size="16" font-weight="bold">Button Component</text>
  <rect x="260" y="80" width="300" height="60" rx="8" fill="#27272A"/>
  <text x="410" y="115" text-anchor="middle" fill="#A1A1AA" font-family="system-ui" font-size="12">Component Preview</text>
</svg>
